<?xml version="1.0" encoding="UTF-8" standalone="no"?>
<!-- Created with Inkscape (http://www.inkscape.org/) -->

<svg
   width="512"
   height="512"
   viewBox="0 0 135.46667 135.46667"
   version="1.1"
   id="svg1"
   inkscape:version="1.4.2 (ebf0e940, 2025-05-08)"
   sodipodi:docname="icon.svg"
   xmlns:inkscape="http://www.inkscape.org/namespaces/inkscape"
   xmlns:sodipodi="http://sodipodi.sourceforge.net/DTD/sodipodi-0.dtd"
   xmlns="http://www.w3.org/2000/svg"
   xmlns:svg="http://www.w3.org/2000/svg">
  <sodipodi:namedview
     id="namedview1"
     pagecolor="#ffffff"
     bordercolor="#999999"
     borderopacity="1"
     inkscape:showpageshadow="2"
     inkscape:pageopacity="0"
     inkscape:pagecheckerboard="0"
     inkscape:deskcolor="#d1d1d1"
     inkscape:document-units="mm"
     inkscape:zoom="0.71684052"
     inkscape:cx="221.80666"
     inkscape:cy="424.08317"
     inkscape:window-width="1472"
     inkscape:window-height="895"
     inkscape:window-x="0"
     inkscape:window-y="33"
     inkscape:window-maximized="0"
     inkscape:current-layer="layer1" />
  <defs
     id="defs1" />
  <g
     inkscape:label="Layer 1"
     inkscape:groupmode="layer"
     id="layer1">
    <circle
       style="fill:#468085;fill-opacity:1;stroke-width:0.165"
       id="path1"
       cx="67.73333"
       cy="67.73333"
       r="67.73333" />
    <path
       d="m 99.777106,29.224371 c 0.743414,0.553126 1.181594,1.425362 1.181594,2.352041 v 52.76966 c 0,0.104888 -0.005,0.207127 -0.0163,0.30877 0.011,0.22131 0.0163,0.444392 0.0163,0.66836 0,7.555851 -6.125189,13.681045 -13.681038,13.681045 -7.555839,0 -13.681033,-6.125194 -13.681033,-13.681045 0,-7.555845 6.125194,-13.681038 13.681033,-13.681038 2.906634,0 5.6018,0.906511 7.817743,2.452031 V 51.151999 l -33.225378,9.967499 v 31.044224 c 0,0.103481 -0.0054,0.207122 -0.01626,0.308475 0.01065,0.221604 0.01626,0.444396 0.01626,0.668801 0,7.555832 -6.125192,13.681032 -13.681023,13.681032 -7.555846,0 -13.68104,-6.1252 -13.68104,-13.681032 0,-7.555843 6.125194,-13.681037 13.68104,-13.681037 2.906705,0 5.601718,0.906513 7.817724,2.452031 V 43.303013 c 0,-1.294616 0.849191,-2.436015 2.089248,-2.808017 l 39.088708,-11.7266 c 0.887751,-0.266369 1.848896,-0.09751 2.592356,0.455914 z M 61.870088,54.99822 95.095454,45.030616 V 35.516625 L 61.870088,45.484243 Z M 48.189062,85.323292 c -4.317619,0 -7.817738,3.500006 -7.817738,7.817743 0,4.317724 3.500119,7.817725 7.817738,7.817725 4.317606,0 7.817725,-3.500001 7.817725,-7.817725 0,-4.317737 -3.500119,-7.817743 -7.817725,-7.817743 z m 31.270927,0 c 0,4.317742 3.5,7.817743 7.817735,7.817743 4.317735,0 7.81773,-3.500001 7.81773,-7.817743 0,-4.317739 -3.499995,-7.81774 -7.81773,-7.81774 -4.317735,0 -7.817735,3.500001 -7.817735,7.81774 z"
       fill="#212121"
       id="path1-1"
       style="fill:#fafafa;fill-opacity:1;stroke-width:3.90886" />
  </g>
</svg>
